<svg width="38" height="38" viewBox="0 0 38 38" fill="none" xmlns="http://www.w3.org/2000/svg">
<path d="M38 19V19.0562C37.9889 22.8092 36.8665 26.4749 34.7745 29.5908C32.6825 32.7068 29.7146 35.1333 26.2451 36.5644C22.7756 37.9955 18.9599 38.3671 15.2795 37.6322C11.5991 36.8973 8.21881 35.0888 5.56499 32.435C2.91117 29.7812 1.10275 26.4009 0.367836 22.7205C-0.367073 19.0401 0.00445789 15.2244 1.43556 11.7549C2.86667 8.28543 5.29323 5.31748 8.40916 3.22547C11.5251 1.13345 15.1908 0.011105 18.9438 0H19C19.4577 0 19.9111 -4.82595e-08 20.3645 0.0518182C21.1066 0.103767 21.8449 0.200382 22.5754 0.341137C23.7718 0.567806 24.9433 0.910564 26.0732 1.36455C28.4443 2.31809 30.5994 3.73883 32.4102 5.54225C34.221 7.34566 35.6506 9.49489 36.6139 11.8621C37.0809 13.0103 37.4324 14.2023 37.6632 15.4203C37.8037 16.1581 37.9003 16.9035 37.9525 17.6528C38 18.1019 38 18.5682 38 19Z" fill="#CF5915"/>
<path d="M38 16.9871V17.0387C37.9923 20.3977 36.9898 23.6791 35.1189 26.4688C33.2479 29.2585 30.5925 31.4315 27.4877 32.7133C24.383 33.9952 20.9681 34.3286 17.674 33.6714C14.3799 33.0143 11.3544 31.396 8.9792 29.0208C6.60404 26.6456 4.98573 23.6201 4.32855 20.326C3.67137 17.0319 4.00476 13.617 5.28665 10.5123C6.56854 7.40749 8.74147 4.75207 11.5312 2.88114C14.3209 1.01022 17.6023 0.0076563 20.9613 0H21.0129C21.4429 0 21.8257 5.76747e-08 22.2342 0.047306C22.8968 0.0935223 23.556 0.17969 24.2082 0.305338C25.0034 0.456844 25.7866 0.665239 26.552 0.928916C28.9134 1.87856 31.0597 3.29349 32.8631 5.08953C34.6665 6.88557 36.0903 9.02602 37.0496 11.3835C37.3263 12.1673 37.5434 12.971 37.699 13.7875C37.8246 14.4469 37.9108 15.1133 37.957 15.783C38 16.1829 38 16.5872 38 16.9871Z" fill="#FF8721"/>
<path d="M38 19V19.0562C37.9889 22.8092 36.8665 26.4749 34.7745 29.5908C32.6825 32.7068 29.7146 35.1333 26.2451 36.5644C22.7756 37.9955 18.9599 38.3671 15.2795 37.6322C11.5991 36.8973 8.21881 35.0888 5.56499 32.435C2.91117 29.7812 1.10275 26.4009 0.367836 22.7205C-0.367073 19.0401 0.00445789 15.2244 1.43556 11.7549C2.86667 8.28543 5.29323 5.31748 8.40916 3.22547C11.5251 1.13345 15.1908 0.011105 18.9438 0H19C19.4577 0 19.9111 -4.82595e-08 20.3645 0.0518182C21.1066 0.103767 21.8449 0.200382 22.5754 0.341137C23.7718 0.567806 24.9433 0.910564 26.0732 1.36455C28.4443 2.31809 30.5994 3.73883 32.4102 5.54225C34.221 7.34566 35.6506 9.49489 36.6139 11.8621C37.0809 13.0103 37.4324 14.2023 37.6632 15.4203C37.8037 16.1581 37.9003 16.9035 37.9525 17.6528C38 18.1019 38 18.5682 38 19Z" fill="#1D78B5"/>
<path d="M38 16.9871V17.0387C37.9923 20.3977 36.9898 23.6791 35.1189 26.4688C33.2479 29.2585 30.5925 31.4315 27.4877 32.7133C24.383 33.9952 20.9681 34.3286 17.674 33.6714C14.3799 33.0143 11.3544 31.396 8.9792 29.0208C6.60404 26.6456 4.98573 23.6201 4.32855 20.326C3.67137 17.0319 4.00476 13.617 5.28665 10.5123C6.56854 7.40749 8.74147 4.75207 11.5312 2.88114C14.3209 1.01022 17.6023 0.0076563 20.9613 0H21.0129C21.4429 0 21.8257 5.76747e-08 22.2342 0.047306C22.8968 0.0935223 23.556 0.17969 24.2082 0.305338C25.0034 0.456844 25.7866 0.665239 26.552 0.928916C28.9134 1.87856 31.0597 3.29349 32.8631 5.08953C34.6665 6.88557 36.0903 9.02602 37.0496 11.3835C37.3263 12.1673 37.5434 12.971 37.699 13.7875C37.8246 14.4469 37.9108 15.1133 37.957 15.783C38 16.1829 38 16.5872 38 16.9871Z" fill="#26B7E2"/>
<path d="M26.1606 11.0569L9.54869 17.6389C8.87217 17.9184 8.78967 18.7613 9.47856 19.0027L13.6862 20.5275L23.5535 14.1276C23.5926 14.1048 23.6384 14.0973 23.6824 14.1066C23.7265 14.1158 23.7658 14.1412 23.793 14.1779C23.8202 14.2147 23.8335 14.2603 23.8304 14.3064C23.8273 14.3524 23.8081 14.3958 23.7762 14.4284L16.0128 21.5906L15.4889 25.8262C15.4802 25.8914 15.4917 25.9577 15.5218 26.0158C15.5519 26.0739 15.599 26.1208 15.6565 26.1499C15.714 26.179 15.779 26.1887 15.8422 26.1777C15.9054 26.1667 15.9636 26.1356 16.0086 26.0888L18.4837 23.5729L22.6418 26.8893C22.7686 26.9564 22.9082 26.994 23.0507 26.9993C23.1933 27.0047 23.3352 26.9777 23.4664 26.9202C23.5976 26.8628 23.7148 26.7763 23.8097 26.667C23.9047 26.5577 23.9749 26.4282 24.0155 26.2878L26.9856 11.7388C27.0098 11.6283 27.0034 11.5131 26.9671 11.4061C26.9307 11.2992 26.8659 11.2049 26.78 11.1339C26.6941 11.0629 26.5905 11.018 26.481 11.0044C26.3715 10.9908 26.2605 11.009 26.1606 11.0569Z" fill="white"/>
</svg>
