<svg width="38" height="38" viewBox="0 0 38 38" fill="none" xmlns="http://www.w3.org/2000/svg">
<path d="M38 19V19.0562C37.9889 22.8092 36.8665 26.4749 34.7745 29.5908C32.6825 32.7068 29.7146 35.1333 26.2451 36.5644C22.7756 37.9955 18.9599 38.3671 15.2795 37.6322C11.5991 36.8973 8.21881 35.0888 5.56499 32.435C2.91117 29.7812 1.10275 26.4009 0.367836 22.7205C-0.367073 19.0401 0.00445789 15.2244 1.43556 11.7549C2.86667 8.28543 5.29323 5.31748 8.40916 3.22547C11.5251 1.13345 15.1908 0.011105 18.9438 0H19C19.4577 0 19.9111 -4.82595e-08 20.3645 0.0518182C21.1066 0.103767 21.8449 0.200382 22.5754 0.341137C23.7718 0.567806 24.9433 0.910564 26.0732 1.36455C28.4443 2.31809 30.5994 3.73883 32.4102 5.54225C34.221 7.34566 35.6506 9.49489 36.6139 11.8621C37.0809 13.0103 37.4324 14.2023 37.6632 15.4203C37.8037 16.1581 37.9003 16.9035 37.9525 17.6528C38 18.1019 38 18.5682 38 19Z" fill="#365885"/>
<path d="M38 16.9871V17.0387C37.9923 20.3977 36.9898 23.6791 35.1189 26.4688C33.2479 29.2585 30.5925 31.4315 27.4877 32.7133C24.383 33.9952 20.9681 34.3286 17.674 33.6714C14.3799 33.0143 11.3544 31.396 8.9792 29.0208C6.60404 26.6456 4.98573 23.6201 4.32855 20.326C3.67137 17.0319 4.00476 13.617 5.28665 10.5123C6.56854 7.40749 8.74147 4.75207 11.5312 2.88114C14.3209 1.01022 17.6023 0.0076563 20.9613 0H21.0129C21.4429 0 21.8257 5.76747e-08 22.2342 0.047306C22.8968 0.0935223 23.556 0.17969 24.2082 0.305338C25.0034 0.456844 25.7866 0.665239 26.552 0.928916C28.9134 1.87856 31.0597 3.29349 32.8631 5.08953C34.6665 6.88557 36.0903 9.02602 37.0496 11.3835C37.3263 12.1673 37.5434 12.971 37.699 13.7875C37.8246 14.4469 37.9108 15.1133 37.957 15.783C38 16.1829 38 16.5872 38 16.9871Z" fill="#4B75A2"/>
<path d="M24.6207 23.9989H27.145C27.145 23.9989 28.975 23.8738 27.2804 22.2544C25.5859 20.6351 24.0442 19.9204 25.4505 18.6201C26.8568 17.3198 29.189 14.4688 27.1057 14.4688H24.0486C23.9918 14.4688 23.6468 14.38 23.3935 14.913C22.9246 15.9224 22.3651 16.8936 21.7207 17.8165C21.1224 18.5676 20.773 19.1006 20.3101 18.8704C19.8471 18.6403 20.1703 15.2724 20.1703 15.2724C20.2015 15.133 20.1995 14.9891 20.1645 14.8505C20.1294 14.7119 20.0622 14.582 19.9675 14.4698C19.8728 14.3576 19.7528 14.2658 19.6159 14.2008C19.4789 14.1358 19.3283 14.0991 19.1745 14.0933C18.0652 13.9802 16.3314 13.8913 15.5496 14.3194C14.9469 14.6424 15.1696 14.7232 15.7636 14.913C16.3576 15.1028 16.5759 16.3829 16.4799 17.4571C16.3838 18.5312 16.113 19.2985 15.4579 18.7816C14.8028 18.2647 13.379 15.8216 13.1868 15.3693C12.9947 14.917 12.8811 14.4607 11.8766 14.4769C10.8721 14.493 9.94624 14.4769 9.64052 14.5132C9.33481 14.5496 8.61855 14.5132 9.25619 15.5833C9.89383 16.6535 11.4355 19.884 12.9947 21.4266C14.5538 22.9692 16.2135 23.9586 18.0434 23.9909C19.8733 24.0232 19.9694 23.9909 20.0655 23.0823C20.1616 22.1737 20.5284 21.1238 21.4543 22.0162C22.3802 22.9086 23.6031 24.0393 24.6207 23.9989Z" fill="white"/>
</svg>
