<svg width="38" height="38" viewBox="0 0 38 38" fill="none" xmlns="http://www.w3.org/2000/svg">
<g clip-path="url(#clip0_17_182)">
<path d="M37 19C37 28.9411 28.9411 37 19 37C9.05887 37 1 28.9411 1 19C1 9.05888 9.05888 1 19 1C28.9411 1 37 9.05887 37 19Z" fill="black" stroke="#26B7E2" stroke-width="2"/>
<path d="M22.7492 27.0013C22.6382 25.7762 22.6808 24.9212 22.6808 23.8017C23.2356 23.5106 24.2296 21.6547 24.3976 20.0868C24.8338 20.0511 25.5216 19.6255 25.723 17.9451C25.8317 17.043 25.4 16.5353 25.1371 16.3757C25.8469 14.2409 27.3213 7.63651 22.4102 6.95403C21.9048 6.06635 20.6105 5.61719 18.9286 5.61719C12.1996 5.74107 11.3879 10.6985 12.8631 16.3757C12.6009 16.5353 12.1692 17.043 12.2771 17.9451C12.4793 19.6255 13.1663 20.0511 13.6026 20.0868C13.7698 21.6539 14.8034 23.5106 15.3597 23.8017C15.3597 24.9212 15.4015 25.7762 15.2905 27.0013C14.3322 29.5777 9.4104 29.7791 6.57104 32.2635C9.5396 35.2526 14.3504 37.3905 19.4272 37.3905C24.504 37.3905 30.4715 33.3823 31.4648 32.2886C28.643 29.7814 23.7098 29.5868 22.7492 27.0013Z" stroke="#26B7E2" stroke-width="2" stroke-miterlimit="10" stroke-linecap="round"/>
</g>
<defs>
<clipPath id="clip0_17_182">
<rect width="38" height="38" fill="white"/>
</clipPath>
</defs>
</svg>
