<svg width="38" height="38" viewBox="0 0 38 38" fill="none" xmlns="http://www.w3.org/2000/svg">
<path d="M38 19V19.0562C37.9889 22.8092 36.8665 26.4749 34.7745 29.5908C32.6825 32.7068 29.7146 35.1333 26.2451 36.5644C22.7756 37.9955 18.9599 38.3671 15.2795 37.6322C11.5991 36.8973 8.21881 35.0888 5.56499 32.435C2.91117 29.7812 1.10275 26.4009 0.367836 22.7205C-0.367073 19.0401 0.00445789 15.2244 1.43556 11.7549C2.86667 8.28543 5.29323 5.31748 8.40916 3.22547C11.5251 1.13345 15.1908 0.011105 18.9438 0H19C19.4577 0 19.9111 -4.82595e-08 20.3645 0.0518182C21.1066 0.103767 21.8449 0.200382 22.5754 0.341137C23.7718 0.567806 24.9433 0.910564 26.0732 1.36455C28.4443 2.31809 30.5994 3.73883 32.4102 5.54225C34.221 7.34566 35.6506 9.49489 36.6139 11.8621C37.0809 13.0103 37.4324 14.2023 37.6632 15.4203V15.4203C37.8037 16.1581 37.9003 16.9035 37.9525 17.6528C38 18.1019 38 18.5682 38 19Z" fill="#9C2275"/>
<path d="M37 16.9871V17.0387C36.9926 20.3977 36.0195 23.6791 34.2036 26.4688C32.3877 29.2585 29.8104 31.4315 26.7969 32.7133C23.7835 33.9952 20.469 34.3286 17.2718 33.6714C14.0746 33.0143 11.1381 31.396 8.83275 29.0208C6.52745 26.6456 4.95674 23.6201 4.31889 20.326C3.68103 17.0319 4.00462 13.617 5.24881 10.5123C6.493 7.40749 8.60202 4.75207 11.3097 2.88114C14.0173 1.01022 17.2022 0.0076563 20.4624 0H20.5125C20.9299 0 21.3014 5.96046e-08 21.6979 0.047306C22.341 0.0935223 22.9808 0.17969 23.6138 0.305338C24.3856 0.456844 25.1459 0.665239 25.8887 0.928916C28.1806 1.87856 30.2638 3.29349 32.0142 5.08953C33.7646 6.88557 35.1464 9.02602 36.0775 11.3835C36.3462 12.1673 36.5569 12.971 36.7078 13.7875C36.8298 14.4469 36.9134 15.1133 36.9583 15.783C37 16.1829 37 16.5872 37 16.9871Z" fill="#C04181"/>
<path d="M10 13.5789V23.4211C10 24.3702 10.3771 25.2806 11.0482 25.9517C11.7194 26.6229 12.6298 27 13.5789 27H23.4211C24.3702 27 25.2806 26.6229 25.9517 25.9517C26.6229 25.2806 27 24.3702 27 23.4211V13.5789C27 12.6298 26.6229 11.7194 25.9517 11.0482C25.2806 10.3771 24.3702 10 23.4211 10H13.5789C12.6298 10 11.7194 10.3771 11.0482 11.0482C10.3771 11.7194 10 12.6298 10 13.5789V13.5789ZM22.2221 25.2105H14.7779C13.9853 25.2105 13.2252 24.8957 12.6648 24.3352C12.1043 23.7748 11.7895 23.0147 11.7895 22.2221V14.7779C11.7895 13.9853 12.1043 13.2252 12.6648 12.6648C13.2252 12.1043 13.9853 11.7895 14.7779 11.7895H22.2221C23.0147 11.7895 23.7748 12.1043 24.3352 12.6648C24.8957 13.2252 25.2105 13.9853 25.2105 14.7779V22.2221C25.2105 23.0147 24.8957 23.7748 24.3352 24.3352C23.7748 24.8957 23.0147 25.2105 22.2221 25.2105Z" fill="white"/>
<path d="M18.5 14C17.61 14 16.74 14.2639 15.9999 14.7584C15.2599 15.2529 14.6831 15.9557 14.3425 16.7779C14.002 17.6002 13.9128 18.505 14.0865 19.3779C14.2601 20.2508 14.6887 21.0526 15.318 21.682C15.9474 22.3113 16.7492 22.7399 17.6221 22.9135C18.495 23.0872 19.3998 22.998 20.2221 22.6575C21.0443 22.3169 21.7471 21.7401 22.2416 21.0001C22.7361 20.26 23 19.39 23 18.5C23 17.3065 22.5259 16.1619 21.682 15.318C20.8381 14.4741 19.6935 14 18.5 14ZM18.5 21C18.0055 21 17.5222 20.8534 17.1111 20.5787C16.7 20.304 16.3795 19.9135 16.1903 19.4567C16.0011 18.9999 15.9516 18.4972 16.048 18.0123C16.1445 17.5273 16.3826 17.0819 16.7322 16.7322C17.0819 16.3826 17.5273 16.1445 18.0123 16.048C18.4972 15.9516 18.9999 16.0011 19.4567 16.1903C19.9135 16.3795 20.304 16.7 20.5787 17.1111C20.8534 17.5222 21 18.0055 21 18.5C21 19.163 20.7366 19.7989 20.2678 20.2678C19.7989 20.7366 19.163 21 18.5 21Z" fill="white"/>
</svg>
