<svg width="15" height="18" viewBox="0 0 15 18" fill="none" xmlns="http://www.w3.org/2000/svg">
<path d="M7.02561 17.5622C6.78109 17.5601 6.53971 17.5069 6.31692 17.4061C6.09414 17.3053 5.89486 17.1591 5.73185 16.9768C3.59511 14.6352 0.000706882 10.1803 0.000706882 7.23565C-0.0258896 5.34497 0.698975 3.52103 2.01611 2.16438C3.33325 0.80773 5.13497 0.0292849 7.02561 0C8.91624 0.0292849 10.718 0.80773 12.0351 2.16438C13.3522 3.52103 14.0771 5.34497 14.0505 7.23565C14.0505 10.1627 10.4561 14.6059 8.31936 16.9827C8.15582 17.1639 7.95631 17.309 7.73356 17.4088C7.5108 17.5086 7.26969 17.5609 7.02561 17.5622ZM7.02561 1.17082C5.44599 1.2016 3.94295 1.85715 2.8457 2.9939C1.74845 4.13065 1.14644 5.65592 1.17152 7.23565C1.17152 9.07383 3.20289 12.4224 6.60411 16.1982C6.65872 16.2549 6.72419 16.3 6.79661 16.3308C6.86903 16.3615 6.94692 16.3774 7.02561 16.3774C7.1043 16.3774 7.18218 16.3615 7.2546 16.3308C7.32702 16.3 7.39249 16.2549 7.4471 16.1982C10.8483 12.4224 12.8797 9.07383 12.8797 7.23565C12.9048 5.65592 12.3028 4.13065 11.2055 2.9939C10.1083 1.85715 8.60523 1.2016 7.02561 1.17082Z" fill="#26B7E2"/>
<path d="M7.02563 10.5376C6.33094 10.5376 5.65184 10.3316 5.07422 9.94562C4.4966 9.55967 4.0464 9.0111 3.78055 8.36928C3.51471 7.72747 3.44515 7.02123 3.58068 6.33988C3.7162 5.65853 4.05073 5.03268 4.54196 4.54145C5.03318 4.05023 5.65904 3.7157 6.34039 3.58017C7.02174 3.44464 7.72797 3.5142 8.36979 3.78005C9.01161 4.0459 9.56018 4.4961 9.94613 5.07371C10.3321 5.65133 10.5381 6.33043 10.5381 7.02513C10.5381 7.95669 10.168 8.85009 9.50931 9.5088C8.8506 10.1675 7.95719 10.5376 7.02563 10.5376ZM7.02563 4.68349C6.5625 4.68349 6.10977 4.82083 5.72469 5.07813C5.33961 5.33543 5.03948 5.70115 4.86225 6.12902C4.68501 6.5569 4.63864 7.02772 4.729 7.48196C4.81935 7.93619 5.04237 8.35343 5.36985 8.68091C5.69733 9.0084 6.11457 9.23141 6.5688 9.32177C7.02304 9.41212 7.49386 9.36575 7.92174 9.18851C8.34962 9.01128 8.71533 8.71115 8.97263 8.32607C9.22993 7.94099 9.36727 7.48826 9.36727 7.02513C9.36727 6.40409 9.12056 5.80848 8.68142 5.36934C8.24228 4.9302 7.64667 4.68349 7.02563 4.68349Z" fill="#26B7E2"/>
</svg>
