<svg width="19" height="19" viewBox="0 0 19 19" fill="none" xmlns="http://www.w3.org/2000/svg">
<g clip-path="url(#clip0_47_296)">
<path d="M13.7749 17.4167C10.5428 17.4125 7.44421 16.1266 5.15874 13.8412C2.87326 11.5557 1.58744 8.45713 1.58325 5.22499C1.58325 4.25916 1.96693 3.33288 2.64987 2.64994C3.33282 1.96699 4.25909 1.58332 5.22492 1.58332C5.42944 1.58176 5.63362 1.60032 5.8345 1.63874C6.02871 1.66747 6.21962 1.7152 6.4045 1.78124C6.53453 1.82686 6.6504 1.90563 6.74065 2.00977C6.8309 2.1139 6.89241 2.23979 6.91909 2.37499L8.00367 7.12499C8.0329 7.25392 8.02938 7.38812 7.99343 7.51534C7.95747 7.64257 7.89023 7.75876 7.79784 7.85332C7.69492 7.96415 7.687 7.97207 6.71325 8.47874C7.49304 10.1894 8.8612 11.5632 10.5687 12.35C11.0833 11.3683 11.0912 11.3604 11.202 11.2575C11.2966 11.1651 11.4128 11.0978 11.54 11.0619C11.6672 11.0259 11.8014 11.0224 11.9303 11.0517L16.6803 12.1362C16.8112 12.1666 16.9322 12.2298 17.0319 12.3198C17.1316 12.4098 17.2068 12.5237 17.2503 12.6508C17.3172 12.8387 17.3675 13.0321 17.4008 13.2287C17.4326 13.4277 17.4485 13.6289 17.4483 13.8304C17.4337 14.7921 17.0392 15.709 16.351 16.3809C15.6628 17.0528 14.7367 17.4251 13.7749 17.4167ZM5.22492 3.16665C4.67966 3.16874 4.15732 3.38627 3.77176 3.77183C3.3862 4.15739 3.16867 4.67972 3.16659 5.22499C3.16868 8.03785 4.28702 10.7349 6.27601 12.7239C8.265 14.7129 10.9621 15.8312 13.7749 15.8333C14.3202 15.8312 14.8425 15.6137 15.2281 15.2281C15.6136 14.8426 15.8312 14.3202 15.8333 13.775C15.8333 13.6879 15.8333 13.6008 15.8333 13.5137L12.1599 12.6667L11.9303 13.1021C11.5741 13.7908 11.3128 14.2896 10.6478 14.0204C9.33595 13.5508 8.14514 12.7949 7.16192 11.8076C6.1787 10.8203 5.42776 9.62632 4.96367 8.31249C4.67867 7.69499 5.217 7.40999 5.89784 7.05374L6.33325 6.83999L5.48617 3.16665H5.22492Z" fill="#26B7E2"/>
</g>
<defs>
<clipPath id="clip0_47_296">
<rect width="19" height="19" fill="white"/>
</clipPath>
</defs>
</svg>
