<svg width="24" height="24" viewBox="0 0 24 24" fill="none" xmlns="http://www.w3.org/2000/svg">
<path d="M3 11.5151C3 9.97513 3.38499 8.5484 4.14742 7.24245C4.90986 5.9365 5.94405 4.90231 7.25 4.13988C8.55595 3.37744 9.97513 3 11.5075 3C12.655 3 13.7571 3.22647 14.8064 3.67185C15.8557 4.11723 16.754 4.72869 17.5164 5.48357C18.2789 6.23845 18.8828 7.14432 19.3282 8.20115C19.7735 9.25799 20 10.3526 20 11.5151C20 12.6625 19.7735 13.7647 19.3282 14.8139C18.8828 15.8632 18.2713 16.7691 17.5164 17.524C16.7615 18.2789 15.8557 18.8828 14.8064 19.3282C13.7571 19.7735 12.6625 20 11.5075 20C10.3526 20 9.2429 19.7735 8.19361 19.3282C7.14432 18.8828 6.23845 18.2713 5.47602 17.5164C4.71359 16.7615 4.11723 15.8557 3.6643 14.8139C3.21137 13.7722 3 12.6701 3 11.5151ZM4.87211 11.5151C4.87211 13.3042 5.52131 14.8592 6.82727 16.1803C8.13322 17.4862 9.68828 18.1354 11.5075 18.1354C12.7003 18.1354 13.8099 17.841 14.8215 17.2447C15.833 16.6483 16.6483 15.8481 17.2447 14.829C17.841 13.8099 18.143 12.7078 18.143 11.5151C18.143 10.3224 17.841 9.2127 17.2447 8.19361C16.6483 7.17451 15.8406 6.36679 14.8215 5.77043C13.8024 5.17407 12.7003 4.87966 11.5075 4.87966C10.3148 4.87966 9.20515 5.17407 8.19361 5.77043C7.18206 6.36679 6.36679 7.17451 5.76288 8.19361C5.15897 9.2127 4.87211 10.3224 4.87211 11.5151ZM7.85391 13.0928C7.8992 12.9267 7.99734 12.7984 8.14076 12.7078L10.8508 11.1301V6.48757C10.8508 6.31394 10.9112 6.16297 11.032 6.04218C11.1528 5.9214 11.3037 5.86101 11.4774 5.86101C11.651 5.86101 11.802 5.9214 11.9227 6.04218C12.0435 6.16297 12.1039 6.31394 12.1039 6.48757V11.5226C12.1039 11.6661 12.0586 11.7869 11.9756 11.9001C11.8925 12.0133 11.7869 12.0813 11.6585 12.119L8.75977 13.8024C8.66918 13.8628 8.57105 13.893 8.45027 13.893C8.2087 13.893 8.02753 13.7873 7.90675 13.5759C7.83126 13.4174 7.80861 13.2589 7.85391 13.0928Z" fill="#26B7E2"/>
</svg>
